<?xml version="1.0" encoding="UTF-8"?>
<svg id="Layer_2" data-name="Layer 2" xmlns="http://www.w3.org/2000/svg" viewBox="0 0 479.98 454.93">
  <defs>
    <style>
      .cls-1 {
        fill: #3ed8c1;
      }
    </style>
  </defs>
  <g id="Layer_1-2" data-name="Layer 1">
    <g>
      <g>
        <path class="cls-1" d="M437.82,291.45c-6.51,24.75-17.48,48.4-32.25,69.53-7.41,10.55-15.75,20.47-24.92,29.59-9.19,9.1-19.18,17.42-29.83,24.82-21.29,14.83-45.29,25.93-70.58,32.44-12.64,3.27-25.58,5.43-38.63,6.44-1.63.12-3.26.28-4.9.36l-4.91.18c-3.27.18-6.55.11-9.83.08l-4.92-.05c-1.64-.06-3.27-.19-4.91-.28-3.27-.23-6.56-.31-9.81-.75-52.33-5.2-102.58-30-139.17-68.36-18.37-19.1-33.36-41.51-44.16-65.86C8.33,295.19,2,268.83.37,242.13c-1.54-26.7,1.69-53.73,9.52-79.43,7.91-25.69,20.53-49.89,36.8-71.31C79.11,48.38,127.19,17.24,180.21,5.41c13.25-2.94,26.77-4.64,40.33-5.2,13.56-.61,27.18.12,40.66,1.95,3.38.39,6.72,1.07,10.07,1.61,3.35.59,6.66,1.37,10,2.05,3.3.83,6.61,1.61,9.89,2.53l4.9,1.44,2.45.72,2.42.81c12.94,4.24,25.5,9.61,37.52,16.03,23.96,12.95,45.75,29.97,63.92,50.33,9.11,10.15,17.39,21.07,24.58,32.69,7.21,11.6,13.52,23.82,18.28,36.65l-27.93,10.99c-4.67-10.95-9.85-21.68-16-31.89-6.11-10.23-13.21-19.87-21.05-28.87-15.63-18.06-34.54-33.27-55.41-44.96-10.47-5.78-21.44-10.66-32.75-14.56l-2.12-.75-2.14-.67-4.29-1.33c-2.87-.85-5.77-1.57-8.66-2.36-2.92-.63-5.83-1.38-8.77-1.93-2.95-.52-5.87-1.17-8.85-1.55-23.68-3.65-48.05-2.94-71.59,1.79-23.56,4.73-46.24,13.89-66.78,26.56-10.27,6.34-20.01,13.58-29.06,21.62-9.02,8.07-17.35,16.92-24.88,26.43-15.03,19.01-26.86,40.62-34.46,63.71-7.6,23.07-11.18,47.52-10.36,71.93.9,24.39,6.08,48.66,15.37,71.37,9.37,22.68,22.81,43.69,39.34,61.98,33,36.68,79.41,61.45,128.84,67.83,3.07.53,6.18.7,9.28,1.02,1.55.14,3.1.31,4.65.42l4.67.2c3.12.13,6.23.31,9.35.24l4.68-.02c1.56-.02,3.12-.13,4.68-.19,12.48-.54,24.92-2.19,37.15-4.92,24.48-5.4,47.96-15.4,69.2-28.96,10.62-6.8,20.67-14.53,29.99-23.08,9.31-8.57,17.85-18,25.55-28.09,15.44-20.15,27.36-43.12,34.94-67.56Z"/>
        <polygon class="cls-1" points="370.9 149.05 446.22 231.5 479.98 125.05 370.9 149.05"/>
      </g>
      <g>
        <path class="cls-1" d="M95.25,223.01c7.84-6.48,14.02-11.8,18.54-15.96,4.52-4.16,8.34-8.52,11.46-13.08s4.68-9,4.68-13.32c0-3.28-.76-5.84-2.28-7.68-1.52-1.84-3.8-2.76-6.84-2.76s-5.42,1.14-7.14,3.42c-1.72,2.28-2.58,5.5-2.58,9.66h-19.8c.16-6.8,1.62-12.48,4.38-17.04,2.76-4.56,6.4-7.92,10.92-10.08,4.52-2.16,9.54-3.24,15.06-3.24,9.52,0,16.7,2.44,21.54,7.32,4.84,4.88,7.26,11.24,7.26,19.08,0,8.56-2.92,16.5-8.76,23.82-5.84,7.32-13.28,14.46-22.32,21.42h32.4v16.68h-60.24v-15.24c2.72-2.16,3.96-3.16,3.72-3Z"/>
        <path class="cls-1" d="M161.25,226.85v-16.56l37.92-54.24h22.92v53.04h9.84v17.76h-9.84v15.6h-20.52v-15.6h-40.32ZM203.01,178.61l-20.16,30.48h20.16v-30.48Z"/>
        <path class="cls-1" d="M295.53,128.45l-32.16,136.44h-19.8l32.16-136.44h19.8Z"/>
        <path class="cls-1" d="M363.81,170.21l-30.12,72.24h-21l30.48-69.96h-37.32v-17.52h57.96v15.24Z"/>
      </g>
      <g>
        <path class="cls-1" d="M78.23,332.47c-3.25-1.33-5.85-3.31-7.8-5.92-1.95-2.61-2.97-5.76-3.08-9.44h14.56c.21,2.08.93,3.67,2.16,4.76,1.23,1.09,2.83,1.64,4.8,1.64s3.63-.47,4.8-1.4c1.17-.93,1.76-2.23,1.76-3.88,0-1.39-.47-2.53-1.4-3.44-.93-.91-2.08-1.65-3.44-2.24-1.36-.59-3.29-1.25-5.8-2-3.63-1.12-6.59-2.24-8.88-3.36-2.29-1.12-4.27-2.77-5.92-4.96-1.65-2.19-2.48-5.04-2.48-8.56,0-5.23,1.89-9.32,5.68-12.28,3.79-2.96,8.72-4.44,14.8-4.44s11.17,1.48,14.96,4.44c3.79,2.96,5.81,7.08,6.08,12.36h-14.8c-.11-1.81-.77-3.24-2-4.28-1.23-1.04-2.8-1.56-4.72-1.56-1.65,0-2.99.44-4,1.32-1.01.88-1.52,2.15-1.52,3.8,0,1.81.85,3.23,2.56,4.24,1.71,1.01,4.37,2.11,8,3.28,3.63,1.23,6.57,2.4,8.84,3.52,2.27,1.12,4.23,2.75,5.88,4.88,1.65,2.13,2.48,4.88,2.48,8.24s-.81,6.11-2.44,8.72c-1.63,2.61-3.99,4.69-7.08,6.24-3.09,1.55-6.75,2.32-10.96,2.32s-7.79-.67-11.04-2Z"/>
        <path class="cls-1" d="M163.83,314.87h-30.96c.21,2.77,1.11,4.89,2.68,6.36,1.57,1.47,3.51,2.2,5.8,2.2,3.41,0,5.79-1.44,7.12-4.32h14.56c-.75,2.93-2.09,5.57-4.04,7.92-1.95,2.35-4.39,4.19-7.32,5.52-2.93,1.33-6.21,2-9.84,2-4.37,0-8.27-.93-11.68-2.8-3.41-1.87-6.08-4.53-8-8-1.92-3.47-2.88-7.52-2.88-12.16s.95-8.69,2.84-12.16c1.89-3.47,4.55-6.13,7.96-8,3.41-1.87,7.33-2.8,11.76-2.8s8.16.91,11.52,2.72c3.36,1.81,5.99,4.4,7.88,7.76,1.89,3.36,2.84,7.28,2.84,11.76,0,1.28-.08,2.61-.24,4ZM150.07,307.27c0-2.35-.8-4.21-2.4-5.6-1.6-1.39-3.6-2.08-6-2.08s-4.23.67-5.8,2c-1.57,1.33-2.55,3.23-2.92,5.68h17.12Z"/>
        <path class="cls-1" d="M194.79,290.91c2.4-1.41,5.07-2.12,8-2.12v14.48h-3.76c-3.41,0-5.97.73-7.68,2.2-1.71,1.47-2.56,4.04-2.56,7.72v20.72h-13.68v-44.64h13.68v7.44c1.6-2.45,3.6-4.39,6-5.8Z"/>
        <path class="cls-1" d="M233.27,321.11l9.68-31.84h14.56l-15.84,44.64h-16.88l-15.84-44.64h14.64l9.68,31.84Z"/>
        <path class="cls-1" d="M268.11,282.51c-1.52-1.41-2.28-3.16-2.28-5.24s.76-3.91,2.28-5.32c1.52-1.41,3.48-2.12,5.88-2.12s4.28.71,5.8,2.12c1.52,1.41,2.28,3.19,2.28,5.32s-.76,3.83-2.28,5.24c-1.52,1.41-3.45,2.12-5.8,2.12s-4.36-.71-5.88-2.12ZM280.79,289.27v44.64h-13.68v-44.64h13.68Z"/>
        <path class="cls-1" d="M294.67,299.43c1.89-3.47,4.53-6.13,7.92-8,3.39-1.87,7.27-2.8,11.64-2.8,5.6,0,10.28,1.47,14.04,4.4,3.76,2.93,6.23,7.07,7.4,12.4h-14.56c-1.23-3.41-3.6-5.12-7.12-5.12-2.51,0-4.51.97-6,2.92-1.49,1.95-2.24,4.73-2.24,8.36s.75,6.41,2.24,8.36c1.49,1.95,3.49,2.92,6,2.92,3.52,0,5.89-1.71,7.12-5.12h14.56c-1.17,5.23-3.65,9.33-7.44,12.32-3.79,2.99-8.45,4.48-14,4.48-4.37,0-8.25-.93-11.64-2.8-3.39-1.87-6.03-4.53-7.92-8-1.89-3.47-2.84-7.52-2.84-12.16s.95-8.69,2.84-12.16Z"/>
        <path class="cls-1" d="M388.63,314.87h-30.96c.21,2.77,1.11,4.89,2.68,6.36,1.57,1.47,3.51,2.2,5.8,2.2,3.41,0,5.79-1.44,7.12-4.32h14.56c-.75,2.93-2.09,5.57-4.04,7.92-1.95,2.35-4.39,4.19-7.32,5.52-2.93,1.33-6.21,2-9.84,2-4.37,0-8.27-.93-11.68-2.8-3.41-1.87-6.08-4.53-8-8-1.92-3.47-2.88-7.52-2.88-12.16s.95-8.69,2.84-12.16c1.89-3.47,4.55-6.13,7.96-8,3.41-1.87,7.33-2.8,11.76-2.8s8.16.91,11.52,2.72c3.36,1.81,5.99,4.4,7.88,7.76,1.89,3.36,2.84,7.28,2.84,11.76,0,1.28-.08,2.61-.24,4ZM374.87,307.27c0-2.35-.8-4.21-2.4-5.6-1.6-1.39-3.6-2.08-6-2.08s-4.23.67-5.8,2c-1.57,1.33-2.55,3.23-2.92,5.68h17.12Z"/>
      </g>
    </g>
  </g>
</svg>