<?xml version="1.0" encoding="UTF-8"?>
<svg id="Layer_2" data-name="Layer 2" xmlns="http://www.w3.org/2000/svg" viewBox="0 0 700.9 271.1">
  <defs>
    <style>
      .cls-1 {
        fill: #3ed8c1;
      }

      .cls-2 {
        fill: #fff;
      }

      .cls-3 {
        fill: #1b2f50;
      }
    </style>
  </defs>
  <g id="Layer_1-2" data-name="Layer 1">
    <g>
      <g>
        <path class="cls-3" d="M126.09,0v.04s-.02-.04-.04-.04h.04Z"/>
        <g>
          <path class="cls-1" d="M163.14,219.16h-9.4v-36.16h14.96c4.06,0,7.17,1.06,9.33,3.17,2.16,2.11,3.24,5.08,3.24,8.92s-1.08,6.81-3.24,8.92c-2.16,2.11-5.27,3.16-9.33,3.16h-5.56v11.99ZM163.14,199.6h3.12c3.45,0,5.18-1.5,5.18-4.51s-1.73-4.51-5.18-4.51h-3.12v9.01Z"/>
          <path class="cls-1" d="M194.11,179.37v39.8h-8.68v-39.8h8.68Z"/>
          <path class="cls-1" d="M208.74,194.57v13.86c0,3.04,1.47,4.56,4.41,4.56s4.41-1.52,4.41-4.56v-13.86h8.68v15.54c0,3.32-1.09,5.82-3.28,7.48-2.19,1.66-5.46,2.49-9.81,2.49s-7.62-.83-9.81-2.49c-2.19-1.66-3.28-4.16-3.28-7.48v-15.54h8.68Z"/>
          <path class="cls-1" d="M232.14,194.57h8.68v3.02c2.37-2.27,5.02-3.41,7.96-3.41,3.64,0,6.43,1.53,8.34,4.6,1.95-3.1,4.73-4.65,8.34-4.65,1.15,0,2.24.17,3.26.5s1.9.86,2.64,1.58c.74.72,1.32,1.65,1.75,2.81.43,1.15.65,2.54.65,4.17v15.97h-8.68v-12.13c0-1.25-.09-2.27-.26-3.07-.18-.8-.43-1.42-.77-1.87-.34-.45-.73-.75-1.18-.91-.45-.16-.93-.24-1.44-.24-2.78,0-4.17,2.03-4.17,6.09v12.13h-8.68v-12.13c0-1.25-.08-2.28-.24-3.09-.16-.82-.39-1.46-.7-1.94-.3-.48-.7-.81-1.17-.98-.48-.18-1.04-.26-1.68-.26-.54,0-1.05.08-1.53.24-.48.16-.9.47-1.27.93-.37.46-.66,1.1-.86,1.92-.21.81-.31,1.88-.31,3.19v12.13h-8.68v-24.6Z"/>
          <path class="cls-1" d="M288.38,179.37v17.65c2.05-2.14,4.6-3.21,7.67-3.21,1.82,0,3.49.34,5.01,1.03,1.52.69,2.81,1.61,3.88,2.78,1.07,1.17,1.91,2.54,2.52,4.12.61,1.58.91,3.27.91,5.06s-.31,3.53-.93,5.13c-.62,1.6-1.5,2.99-2.61,4.17-1.12,1.18-2.44,2.12-3.96,2.8-1.52.69-3.16,1.03-4.92,1.03-3.2,0-5.72-1.17-7.58-3.5v2.73h-8.68v-39.8h8.68ZM299.32,206.94c0-.77-.14-1.49-.43-2.18-.29-.69-.69-1.29-1.2-1.8-.51-.51-1.1-.92-1.77-1.22s-1.41-.46-2.21-.46-1.49.14-2.16.43c-.67.29-1.26.69-1.75,1.2-.5.51-.9,1.11-1.2,1.8-.3.69-.46,1.42-.46,2.18s.14,1.49.43,2.16c.29.67.69,1.26,1.2,1.75.51.5,1.11.9,1.8,1.2.69.3,1.41.46,2.18.46s1.49-.14,2.16-.43,1.25-.69,1.75-1.2c.49-.51.89-1.1,1.2-1.77.3-.67.46-1.37.46-2.11Z"/>
          <path class="cls-1" d="M312.74,185.12c0-.67.13-1.3.38-1.89.26-.59.61-1.11,1.05-1.56.45-.45.97-.8,1.56-1.05.59-.26,1.22-.38,1.89-.38s1.3.13,1.89.38c.59.26,1.11.61,1.56,1.05.45.45.8.97,1.06,1.56.26.59.38,1.22.38,1.89s-.13,1.3-.38,1.89c-.26.59-.61,1.11-1.06,1.56-.45.45-.97.8-1.56,1.06-.59.26-1.22.38-1.89.38s-1.3-.13-1.89-.38c-.59-.26-1.11-.61-1.56-1.06-.45-.45-.8-.97-1.05-1.56-.26-.59-.38-1.22-.38-1.89ZM322,194.57v24.6h-8.68v-24.6h8.68Z"/>
          <path class="cls-1" d="M327.94,194.57h8.68v3.12c1.18-1.44,2.38-2.4,3.6-2.9,1.21-.5,2.64-.74,4.27-.74,1.73,0,3.2.28,4.44.84,1.23.56,2.28,1.35,3.14,2.37.7.83,1.18,1.76,1.44,2.78.26,1.02.38,2.19.38,3.5v15.63h-8.68v-12.42c0-1.21-.09-2.2-.26-2.95-.18-.75-.49-1.35-.93-1.8-.38-.38-.82-.66-1.29-.82-.48-.16-.99-.24-1.53-.24-1.47,0-2.6.44-3.38,1.32-.78.88-1.17,2.13-1.17,3.77v13.14h-8.68v-24.6Z"/>
          <path class="cls-1" d="M387.31,194.57v22.92c0,1.37-.08,2.6-.24,3.69-.16,1.09-.38,2.05-.67,2.88-.38,1.06-.98,2.04-1.8,2.95-.82.91-1.8,1.7-2.95,2.37-1.15.67-2.45,1.2-3.91,1.58-1.46.38-3.03.58-4.72.58-1.92,0-3.68-.24-5.27-.72-1.6-.48-3-1.14-4.2-1.99-1.2-.85-2.18-1.84-2.95-2.97s-1.28-2.37-1.53-3.72h9.78c.61,1.63,1.98,2.45,4.12,2.45,1.82,0,3.22-.51,4.2-1.53.97-1.02,1.46-2.45,1.46-4.27v-2.35c-.64.61-1.26,1.11-1.85,1.51-.59.4-1.19.73-1.8.98-.61.25-1.25.44-1.92.55-.67.11-1.41.17-2.21.17-1.76,0-3.37-.3-4.84-.91-1.47-.61-2.74-1.45-3.81-2.54-1.07-1.09-1.9-2.39-2.49-3.91-.59-1.52-.89-3.21-.89-5.06s.32-3.64.96-5.25c.64-1.61,1.51-3.02,2.61-4.22s2.41-2.14,3.93-2.83c1.52-.69,3.17-1.03,4.96-1.03,2.91,0,5.35,1.09,7.34,3.26v-2.59h8.68ZM367.84,206.75c0,.8.14,1.54.43,2.23.29.69.68,1.29,1.18,1.8.5.51,1.09.91,1.77,1.2.69.29,1.43.43,2.23.43s1.49-.14,2.18-.43c.69-.29,1.28-.69,1.77-1.2.5-.51.89-1.11,1.2-1.8.3-.69.46-1.41.46-2.18s-.15-1.53-.46-2.21c-.3-.67-.71-1.26-1.22-1.78-.51-.51-1.11-.91-1.8-1.2-.69-.29-1.4-.43-2.13-.43s-1.49.15-2.16.46-1.26.7-1.77,1.2c-.51.5-.92,1.08-1.22,1.75-.3.67-.46,1.39-.46,2.16Z"/>
          <path class="cls-1" d="M434.39,205.35c1.92-1.82,3.48-3.55,4.7-5.18l5.32,5.13c-.54.74-1.16,1.48-1.85,2.23-.69.75-1.48,1.54-2.37,2.37l-.72.67,8.06,8.58h-11.7l-3.17-3.31c-4.32,2.88-8.46,4.32-12.42,4.32-1.69,0-3.24-.26-4.65-.77-1.41-.51-2.62-1.23-3.64-2.16-1.02-.93-1.82-2.02-2.4-3.28s-.86-2.64-.86-4.15c0-1.34.18-2.53.55-3.57.37-1.04,1-2.04,1.89-3,.67-.74,1.41-1.37,2.23-1.89.82-.53,1.81-1.06,3-1.61l1.01-.48-.62-.72c-1.85-2.33-2.78-4.56-2.78-6.66,0-1.41.29-2.72.86-3.93.58-1.21,1.37-2.26,2.37-3.14,1.01-.88,2.2-1.57,3.57-2.06,1.37-.5,2.86-.74,4.46-.74s3.13.25,4.51.74c1.37.5,2.57,1.19,3.57,2.09s1.79,1.94,2.35,3.14.84,2.5.84,3.91c0,.96-.11,1.83-.34,2.61-.22.78-.6,1.52-1.13,2.21-.53.69-1.22,1.34-2.06,1.97-.85.62-1.89,1.26-3.14,1.89l4.56,4.79ZM421.83,204.06c-2.27,1.41-3.4,2.81-3.4,4.22,0,.51.11.98.34,1.42.22.43.53.8.91,1.1.38.3.82.54,1.32.72.49.18,1.03.26,1.61.26,1.6,0,3.24-.53,4.94-1.58l-5.71-6.14ZM425.71,196.2c2.24-1.34,3.36-2.85,3.36-4.51,0-.89-.3-1.67-.89-2.33-.59-.65-1.35-.98-2.28-.98-.86,0-1.58.29-2.16.86-.57.57-.86,1.29-.86,2.16,0,1.15.94,2.75,2.83,4.8Z"/>
          <path class="cls-1" d="M467.62,183.01h13.91c2.46,0,4.77.5,6.93,1.49,2.16.99,4.04,2.31,5.66,3.96,1.61,1.65,2.88,3.56,3.81,5.75s1.39,4.48,1.39,6.88-.46,4.64-1.37,6.83c-.91,2.19-2.17,4.12-3.79,5.78-1.61,1.66-3.5,2.99-5.66,3.98s-4.48,1.49-6.98,1.49h-13.91v-36.16ZM477.02,211.2h2.16c1.63,0,3.08-.25,4.36-.77,1.28-.51,2.36-1.22,3.24-2.11.88-.89,1.55-1.96,2.01-3.19s.7-2.58.7-4.05-.24-2.78-.72-4.03c-.48-1.25-1.16-2.32-2.04-3.21-.88-.9-1.96-1.6-3.24-2.11-1.28-.51-2.72-.77-4.32-.77h-2.16v20.24Z"/>
          <path class="cls-1" d="M504.5,194.57h8.68v4.03c.93-1.47,2.06-2.6,3.4-3.38,1.34-.78,2.91-1.17,4.7-1.17h.74c.27,0,.58.03.93.1v8.3c-1.15-.57-2.4-.86-3.74-.86-2.01,0-3.52.6-4.53,1.8-1.01,1.2-1.51,2.95-1.51,5.25v10.55h-8.68v-24.6Z"/>
          <path class="cls-1" d="M546.12,194.57h8.73v24.6h-8.73v-2.73c-1.85,2.33-4.36,3.5-7.53,3.5-1.79,0-3.44-.33-4.94-.98-1.5-.65-2.81-1.57-3.93-2.76-1.12-1.18-1.99-2.57-2.61-4.17s-.93-3.34-.93-5.23c0-1.76.3-3.43.91-5.01.61-1.58,1.45-2.96,2.54-4.15,1.09-1.18,2.38-2.12,3.88-2.81,1.5-.69,3.17-1.03,4.99-1.03,3.07,0,5.61,1.07,7.62,3.21v-2.44ZM535.19,206.79c0,.8.14,1.54.43,2.23.29.69.68,1.29,1.18,1.8.5.51,1.09.91,1.77,1.2.69.29,1.43.43,2.23.43s1.49-.14,2.18-.43c.69-.29,1.28-.69,1.77-1.2.5-.51.89-1.1,1.2-1.77.3-.67.46-1.39.46-2.16s-.15-1.49-.46-2.18c-.3-.69-.7-1.29-1.2-1.8-.5-.51-1.09-.91-1.77-1.2-.69-.29-1.41-.43-2.18-.43s-1.54.14-2.23.43c-.69.29-1.28.69-1.77,1.2-.5.51-.89,1.1-1.18,1.75-.29.66-.43,1.37-.43,2.13Z"/>
          <path class="cls-1" d="M560.17,185.12c0-.67.13-1.3.38-1.89.26-.59.61-1.11,1.05-1.56.45-.45.97-.8,1.56-1.05.59-.26,1.22-.38,1.89-.38s1.3.13,1.89.38c.59.26,1.11.61,1.56,1.05.45.45.8.97,1.06,1.56.26.59.38,1.22.38,1.89s-.13,1.3-.38,1.89c-.26.59-.61,1.11-1.06,1.56-.45.45-.97.8-1.56,1.06-.59.26-1.22.38-1.89.38s-1.3-.13-1.89-.38c-.59-.26-1.11-.61-1.56-1.06-.45-.45-.8-.97-1.05-1.56-.26-.59-.38-1.22-.38-1.89ZM569.42,194.57v24.6h-8.68v-24.6h8.68Z"/>
          <path class="cls-1" d="M575.37,194.57h8.68v3.12c1.18-1.44,2.38-2.4,3.6-2.9,1.21-.5,2.64-.74,4.27-.74,1.73,0,3.2.28,4.44.84,1.23.56,2.28,1.35,3.14,2.37.7.83,1.18,1.76,1.44,2.78.26,1.02.38,2.19.38,3.5v15.63h-8.68v-12.42c0-1.21-.09-2.2-.26-2.95-.18-.75-.49-1.35-.93-1.8-.38-.38-.82-.66-1.29-.82-.48-.16-.99-.24-1.53-.24-1.47,0-2.6.44-3.38,1.32-.78.88-1.17,2.13-1.17,3.77v13.14h-8.68v-24.6Z"/>
          <path class="cls-1" d="M626.2,194.57h8.73v24.6h-8.73v-2.73c-1.85,2.33-4.36,3.5-7.53,3.5-1.79,0-3.44-.33-4.94-.98-1.5-.65-2.81-1.57-3.93-2.76-1.12-1.18-1.99-2.57-2.61-4.17-.62-1.6-.94-3.34-.94-5.23,0-1.76.3-3.43.91-5.01.61-1.58,1.45-2.96,2.54-4.15s2.38-2.12,3.88-2.81c1.5-.69,3.16-1.03,4.99-1.03,3.07,0,5.61,1.07,7.62,3.21v-2.44ZM615.26,206.79c0,.8.14,1.54.43,2.23.29.69.68,1.29,1.17,1.8.5.51,1.09.91,1.78,1.2.69.29,1.43.43,2.23.43s1.49-.14,2.18-.43c.69-.29,1.28-.69,1.77-1.2.5-.51.9-1.1,1.2-1.77.3-.67.46-1.39.46-2.16s-.15-1.49-.46-2.18c-.3-.69-.7-1.29-1.2-1.8-.5-.51-1.09-.91-1.77-1.2-.69-.29-1.42-.43-2.18-.43s-1.54.14-2.23.43c-.69.29-1.28.69-1.78,1.2-.5.51-.89,1.1-1.17,1.75-.29.66-.43,1.37-.43,2.13Z"/>
          <path class="cls-1" d="M668.35,194.57v22.92c0,1.37-.08,2.6-.24,3.69-.16,1.09-.38,2.05-.67,2.88-.38,1.06-.98,2.04-1.8,2.95-.81.91-1.8,1.7-2.95,2.37-1.15.67-2.45,1.2-3.91,1.58-1.45.38-3.03.58-4.72.58-1.92,0-3.68-.24-5.27-.72-1.6-.48-3-1.14-4.2-1.99s-2.18-1.84-2.95-2.97c-.77-1.13-1.28-2.37-1.53-3.72h9.78c.61,1.63,1.98,2.45,4.12,2.45,1.82,0,3.22-.51,4.2-1.53.97-1.02,1.46-2.45,1.46-4.27v-2.35c-.64.61-1.26,1.11-1.85,1.51-.59.4-1.19.73-1.8.98-.61.25-1.25.44-1.92.55-.67.11-1.41.17-2.21.17-1.76,0-3.37-.3-4.84-.91-1.47-.61-2.74-1.45-3.81-2.54s-1.9-2.39-2.49-3.91c-.59-1.52-.89-3.21-.89-5.06s.32-3.64.96-5.25c.64-1.61,1.51-3.02,2.61-4.22,1.1-1.2,2.41-2.14,3.93-2.83,1.52-.69,3.17-1.03,4.96-1.03,2.91,0,5.35,1.09,7.34,3.26v-2.59h8.68ZM648.88,206.75c0,.8.14,1.54.43,2.23.29.69.68,1.29,1.17,1.8.5.51,1.09.91,1.78,1.2.69.29,1.43.43,2.23.43s1.49-.14,2.18-.43c.69-.29,1.28-.69,1.77-1.2.5-.51.9-1.11,1.2-1.8.3-.69.46-1.41.46-2.18s-.15-1.53-.46-2.21c-.3-.67-.71-1.26-1.22-1.78-.51-.51-1.11-.91-1.8-1.2-.69-.29-1.4-.43-2.13-.43s-1.49.15-2.16.46c-.67.3-1.26.7-1.77,1.2-.51.5-.92,1.08-1.22,1.75-.3.67-.46,1.39-.46,2.16Z"/>
          <path class="cls-1" d="M682.63,208.33c0,3.74,1.76,5.61,5.27,5.61,1.89,0,3.31-.77,4.27-2.3h8.39c-1.69,5.63-5.93,8.44-12.71,8.44-2.08,0-3.98-.31-5.71-.94-1.73-.62-3.21-1.51-4.43-2.66-1.23-1.15-2.18-2.53-2.85-4.12-.67-1.6-1.01-3.39-1.01-5.37s.32-3.89.96-5.54c.64-1.65,1.55-3.05,2.73-4.2,1.18-1.15,2.61-2.04,4.29-2.66,1.68-.62,3.57-.93,5.68-.93s3.95.31,5.61.93c1.66.62,3.07,1.53,4.22,2.71,1.15,1.18,2.03,2.63,2.64,4.34.61,1.71.91,3.64.91,5.78v.91h-18.27ZM692.8,203.29c-.29-1.22-.88-2.19-1.77-2.92-.9-.74-1.98-1.1-3.26-1.1-1.34,0-2.44.35-3.28,1.06s-1.38,1.69-1.61,2.97h9.93Z"/>
        </g>
        <path class="cls-2" d="M143.39,182.99v36.19c-14.71,0-28.07-6.02-37.76-15.71-9.69-9.69-15.71-23.05-15.71-37.76V54.71c0-9.83-7.65-18.22-17.47-18.54-10.27-.34-18.69,7.89-18.69,18.08v41.06h19.86v36.17h-19.86v87.66s-.02.04-.04.04H17.63s-.04-.02-.04-.04v-87.66H0v-36.17h17.59v-41.84C17.59,24.06,41.65,0,71.06,0h1.56c29.41,0,53.47,24.06,53.47,53.47v111.46c0,9.73,7.67,17.65,17.3,18.06Z"/>
        <path class="cls-3" d="M89.96,219.18h-.04v-.04s.02.04.04.04Z"/>
        <path class="cls-2" d="M192.11,61.01c-28.93,0-52.39,23.45-52.39,52.38s23.46,52.39,52.39,52.39,52.39-23.45,52.39-52.39-23.46-52.38-52.39-52.38ZM204.89,126.18c-3.27,3.28-7.79,5.3-12.78,5.3s-9.52-2.02-12.79-5.3c-3.27-3.27-5.29-7.8-5.29-12.79s2.02-9.51,5.29-12.78c3.27-3.27,7.79-5.3,12.79-5.3,9.98,0,18.08,8.1,18.08,18.08,0,4.99-2.02,9.52-5.3,12.79Z"/>
        <path class="cls-3" d="M256.03,114.61v.53c-.01-.18-.02-.35-.02-.53h.02Z"/>
        <path class="cls-2" d="M432.7,64.51v49.56c-.04,1.63-.15,3.25-.34,4.84-3,26.08-25.15,46.32-52.03,46.32-13.93,0-26.59-5.43-35.97-14.31-9.38,8.88-22.05,14.32-35.98,14.32-26.88,0-49.03-20.25-52.03-46.33-.17-1.42-.28-2.86-.32-4.31v-50.09h34.31v48.44c0,.75.01,1.5.11,2.24.52,4.06,2.39,7.71,5.14,10.46,3.27,3.28,7.79,5.29,12.79,5.29s9.51-2.01,12.78-5.29c2.76-2.75,4.63-6.4,5.15-10.45.1-.74.11-1.49.11-2.24v-48.4h35.88v48.25c0,1.2.06,2.39.29,3.57.7,3.58,2.46,6.78,4.95,9.26,3.27,3.29,7.79,5.3,12.79,5.3s9.51-2.01,12.78-5.3c2.76-2.75,4.63-6.39,5.15-10.45.1-.74.11-1.49.11-2.24l.02-48.44h34.31Z"/>
      </g>
      <path class="cls-1" d="M157.23,223.78l-13.12,22.73c-6.31,10.93,1.58,24.59,14.19,24.59h0c12.62,0,20.5-13.66,14.19-24.59l-13.12-22.73c-.48-.82-1.66-.82-2.14,0Z"/>
    </g>
  </g>
</svg>