<?xml version="1.0" encoding="UTF-8"?>
<svg id="Layer_2" data-name="Layer 2" xmlns="http://www.w3.org/2000/svg" viewBox="0 0 1200.88 467.42">
  <defs>
    <style>
      .cls-1 {
        fill: #3ed8c1;
      }

      .cls-2 {
        fill: #fff;
      }
    </style>
  </defs>
  <g id="Layer_1-2" data-name="Layer 1">
    <g>
      <g>
        <circle class="cls-1" cx="507.77" cy="231.67" r="5.43"/>
        <circle class="cls-1" cx="521.04" cy="205.34" r="5.6"/>
        <circle class="cls-1" cx="520.89" cy="176.8" r="5.77"/>
        <circle class="cls-1" cx="507.7" cy="150.99" r="5.94"/>
        <circle class="cls-1" cx="483.44" cy="133.38" r="6.1"/>
        <circle class="cls-1" cx="455.19" cy="128.06" r="6.27"/>
        <circle class="cls-1" cx="427.39" cy="134.91" r="6.44"/>
        <circle class="cls-1" cx="404.25" cy="153.58" r="6.61"/>
        <circle class="cls-1" cx="390.87" cy="179.93" r="6.77"/>
        <circle class="cls-1" cx="388.9" cy="208.5" r="6.94"/>
        <circle class="cls-1" cx="398.06" cy="235.75" r="7.11"/>
        <circle class="cls-1" cx="418.01" cy="258.09" r="7.28"/>
        <circle class="cls-1" cx="444.52" cy="271.07" r="7.45"/>
        <circle class="cls-1" cx="473.09" cy="273.54" r="7.61"/>
        <circle class="cls-1" cx="500.72" cy="265.73" r="7.78"/>
        <circle class="cls-1" cx="524.39" cy="247.88" r="7.95"/>
        <circle class="cls-1" cx="540.36" cy="222.49" r="8.12"/>
        <circle class="cls-1" cx="546.59" cy="194.3" r="8.29"/>
        <circle class="cls-1" cx="543.27" cy="165.86" r="8.45"/>
        <circle class="cls-1" cx="530.6" cy="139.74" r="8.62"/>
        <circle class="cls-1" cx="508.99" cy="118.59" r="8.79"/>
        <circle class="cls-1" cx="482.39" cy="105.78" r="8.96"/>
        <circle class="cls-1" cx="453.89" cy="101.9" r="9.12"/>
        <circle class="cls-1" cx="425.65" cy="106.77" r="9.29"/>
        <circle class="cls-1" cx="399.83" cy="120.24" r="9.46"/>
        <circle class="cls-1" cx="378.68" cy="141.93" r="9.63"/>
        <circle class="cls-1" cx="365.22" cy="168.32" r="9.8"/>
        <circle class="cls-1" cx="359.99" cy="196.69" r="9.96"/>
        <circle class="cls-1" cx="362.86" cy="225.2" r="10.13"/>
        <circle class="cls-1" cx="373.68" cy="252.01" r="10.3"/>
        <circle class="cls-1" cx="392.3" cy="275.3" r="10.47"/>
        <circle class="cls-1" cx="417.1" cy="292.66" r="10.64"/>
        <circle class="cls-1" cx="444.62" cy="302.38" r="10.8"/>
        <circle class="cls-1" cx="473.27" cy="304.57" r="10.97"/>
        <circle class="cls-1" cx="501.48" cy="299.34" r="11.14"/>
        <circle class="cls-1" cx="527.71" cy="286.84" r="11.31"/>
        <circle class="cls-1" cx="550.39" cy="267.17" r="11.47"/>
        <circle class="cls-1" cx="567.33" cy="242.12" r="11.64"/>
        <circle class="cls-1" cx="577.22" cy="214.64" r="11.81"/>
        <circle class="cls-1" cx="580.16" cy="186.02" r="11.98"/>
        <circle class="cls-1" cx="576.27" cy="157.61" r="12.15"/>
        <circle class="cls-1" cx="565.64" cy="130.7" r="12.31"/>
        <circle class="cls-1" cx="548.39" cy="106.64" r="12.48"/>
        <circle class="cls-1" cx="525.06" cy="86.94" r="12.65"/>
        <circle class="cls-1" cx="498.62" cy="73.56" r="12.82"/>
        <circle class="cls-1" cx="470.48" cy="66.63" r="12.99"/>
        <circle class="cls-1" cx="441.78" cy="66.05" r="13.15"/>
        <circle class="cls-1" cx="413.63" cy="71.74" r="13.32"/>
        <circle class="cls-1" cx="387.14" cy="83.61" r="13.49"/>
        <circle class="cls-1" cx="363.45" cy="101.58" r="13.66"/>
        <circle class="cls-1" cx="343.89" cy="125.06" r="13.82"/>
        <circle class="cls-1" cx="330.18" cy="151.4" r="13.99"/>
        <circle class="cls-1" cx="322.41" cy="179.39" r="14.16"/>
        <circle class="cls-1" cx="320.51" cy="208.07" r="14.33"/>
        <circle class="cls-1" cx="324.41" cy="236.5" r="14.5"/>
        <circle class="cls-1" cx="334.01" cy="263.74" r="14.66"/>
        <circle class="cls-1" cx="349.27" cy="288.82" r="14.83"/>
        <circle class="cls-1" cx="370.09" cy="310.81" r="15"/>
      </g>
      <path class="cls-2" d="M33.2,136.4h-15.34c-9.87,0-17.86-8-17.86-17.86h0c0-7.52,4.71-14.24,11.79-16.8l21.41-7.74v-7.6C33.2,43.2,57.2,0,124.4,0c12.36,0,23.3,1.75,32.69,4.25,8.78,2.33,14.91,10.27,14.91,19.35h0c0,12.2-10.83,21.63-22.89,19.8-6.15-.93-12.77-1.4-20.71-1.4-30.8,0-46.4,13.6-46.4,40.4v8.4h49.19c11.05,0,20.01,8.96,20.01,20.01v5.58c0,11.05-8.96,20.01-20.01,20.01h-49.19v224.8c0,13.48-10.92,24.4-24.4,24.4h0c-13.48,0-24.4-10.92-24.4-24.4v-224.8ZM192,252.8V36.42c0-11.09,7.48-20.79,18.21-23.6h0c15.47-4.06,30.59,7.61,30.59,23.6v203.57c0,18,6.4,23.2,20.4,23.2.06,0,.13,0,.19,0,12.19-.09,22.21,9.55,22.21,21.74v.46c0,8.58-5.01,16.42-12.87,19.85-6.93,3.03-15.76,5.15-25.53,5.15-21.2,0-53.2-11.6-53.2-57.6Z"/>
      <path class="cls-2" d="M621.91,215.61v-109c0-13.14,10.66-23.8,23.8-23.8h1.2c13.14,0,23.8,10.66,23.8,23.8v109c0,33.6,20,48,46.8,48s47.2-14.4,47.2-48v-109c0-13.14,10.66-23.8,23.8-23.8h0c13.14,0,23.8,10.66,23.8,23.8v109c0,33.6,19.6,48,47.2,48s46.8-14.4,46.8-48v-109c0-13.14,10.66-23.8,23.8-23.8h1.2c13.14,0,23.8,10.66,23.8,23.8v109c0,64-38.4,95.2-89.6,95.2-36,0-61.2-14-76.8-41.6-16,27.6-41.2,41.6-77.2,41.6-51.2,0-89.6-31.2-89.6-95.2Z"/>
      <g>
        <path class="cls-1" d="M151.49,378.21c0-3.31,2.69-6,6-6h26.3c14.6,0,26.5,8.8,26.5,26.7s-11.9,26.6-26.5,26.6h-19.7v14.4c0,3.48-2.82,6.3-6.3,6.3h0c-3.48,0-6.3-2.82-6.3-6.3v-61.7ZM182.69,413.32c8.6,0,14.4-4.9,14.4-14.4s-5.8-14.5-14.4-14.5h-12.6c-3.31,0-6,2.69-6,6v16.9c0,3.31,2.69,6,6,6h12.6Z"/>
        <path class="cls-1" d="M218.88,433.02v-54.1c0-2.77,1.87-5.2,4.55-5.9h0c3.87-1.01,7.65,1.9,7.65,5.9v50.9c0,4.5,1.6,5.8,5.1,5.8.02,0,.03,0,.05,0,3.03-.02,5.55,2.31,5.55,5.34v.27c0,2.14-1.27,4.06-3.23,4.91-1.73.76-3.94,1.28-6.37,1.28-5.3,0-13.3-2.9-13.3-14.4Z"/>
        <path class="cls-1" d="M247.98,421.12v-24.6c0-3.37,2.73-6.1,6.1-6.1h0c3.37,0,6.1,2.73,6.1,6.1v24.6c0,10.1,5,14.5,13.3,14.5s13.4-4.4,13.4-14.5v-24.6c0-3.37,2.73-6.1,6.1-6.1h0c3.37,0,6.1,2.73,6.1,6.1v24.6c0,16.7-9.6,26.3-25.6,26.3s-25.5-9.6-25.5-26.3Z"/>
        <path class="cls-1" d="M311.28,440.12v-44.13c0-3.08,2.5-5.57,5.57-5.57h0c2.86,0,5.25,2.16,5.54,5l.48,4.7c3.8-7.7,10.5-11,18.4-11,7.4,0,14.1,3.4,17.7,11,3.4-6.2,8.8-11,19.9-11,13,0,22.1,8.5,22.1,25.6v25.4c0,3.37-2.73,6.1-6.1,6.1h0c-3.37,0-6.1-2.73-6.1-6.1v-25.7c0-9.09-4.59-13.49-12.95-13.4-7.62.08-13.65,6.51-13.65,14.13v24.97c0,3.37-2.73,6.1-6.1,6.1h0c-3.37,0-6.1-2.73-6.1-6.1v-25.7c0-9-4.5-13.4-12.6-13.4-9.5,0-13.9,7-13.9,17v22.1c0,3.37-2.73,6.1-6.1,6.1h0c-3.37,0-6.1-2.73-6.1-6.1Z"/>
        <path class="cls-1" d="M465.99,417.12c0,18.8-12.2,30.3-30.5,30.3-7.82,0-16.86-2.78-22.61-7.31-1.41-1.11-2.19-2.84-2.19-4.64v-56.55c0-2.77,1.87-5.2,4.55-5.9h0c3.87-1.01,7.65,1.9,7.65,5.9v19.69c4.3-6.9,11.8-9.4,18.2-9.4,14.4,0,24.9,9.8,24.9,27.9ZM453.19,417.12c0-10.7-5-17.1-15.2-17.1-9.5,0-15.1,8.2-15.1,18.4v11.51c0,2.63,1.71,4.98,4.23,5.74,2.6.78,5.46,1.15,8.77,1.15,11.9,0,17.3-7.6,17.3-19.7Z"/>
        <path class="cls-1" d="M473.98,377.26h0c0-3.45,2.8-6.25,6.25-6.25h1.2c3.45,0,6.25,2.8,6.25,6.25h0c0,3.45-2.8,6.25-6.25,6.25h-1.2c-3.45,0-6.25-2.8-6.25-6.25ZM474.78,440.12v-43.6c0-3.37,2.73-6.1,6.1-6.1h0c3.37,0,6.1,2.73,6.1,6.1v43.6c0,3.37-2.73,6.1-6.1,6.1h0c-3.37,0-6.1-2.73-6.1-6.1Z"/>
        <path class="cls-1" d="M504.55,390.42h0c2.86,0,5.25,2.16,5.54,5l.48,4.7c4.1-7.7,10.2-11,19.1-11,12.8,0,21.3,8.3,21.3,25v26c0,3.37-2.73,6.1-6.1,6.1h0c-3.37,0-6.1-2.73-6.1-6.1v-26c0-8.8-4.6-13.1-12.7-13.1-9.8,0-14.9,5.7-14.9,17v22.1c0,3.37-2.73,6.1-6.1,6.1h0c-3.37,0-6.1-2.73-6.1-6.1v-44.13c0-3.08,2.5-5.57,5.57-5.57Z"/>
        <path class="cls-1" d="M594.28,430.42c18.9,0,24.7,7.8,24.7,17.8,0,11.2-8.7,19.2-28.5,19.2s-28.2-8-28.2-19.2c0-5.4,2.2-9.3,4.9-11.9-2.2-2.2-3.5-5.1-3.5-9,0-5.1,3.2-8.5,6.3-10.4-2.4-2.9-3.6-6.4-3.6-10.5,0-10.2,7.4-17.2,24-17.2,2.7,0,5.1.2,7.3.5.52-5.45,5.22-8.85,10.98-10.25,3.26-.8,6.43,1.63,6.43,4.99v.59c0,2.33-1.59,4.28-3.82,4.97-1.62.5-2.99,1.43-3.98,3,4.9,3.1,7.2,7.8,7.2,13.4,0,10.4-7.5,17.4-24,17.4-5.3,0-9.7-.7-13.2-2-1.1,1-1.7,2.3-1.7,3.7,0,3,2.3,4.9,8.8,4.9h9.9ZM607.48,448.12c0-4.1-2.8-6.9-12.9-6.9h-10.8c-2.6,0-5.3-.2-7.9-.7-1.9,2.5-2.1,5.1-2.1,7.6,0,5.3,4.6,9.7,16.7,9.7s17-4.4,17-9.7ZM578.28,406.42c0,4.5,3.3,7.7,12.2,7.7s12.1-3.2,12.1-7.7-3-7.5-12.1-7.5-12.2,3.1-12.2,7.5Z"/>
        <path class="cls-1" d="M702.41,441.05c-.39-2.37-1.13-4.46-2.33-6.44-7,9-15.9,12.8-27.3,12.8-15.9,0-25.9-9-25.9-22.1,0-8,4.2-14.5,12.4-19.6-3.04-3.73-4.83-8.23-4.9-14.07-.12-10.88,8.43-19.75,19.28-20.51,6.37-.45,11.22.43,15.34,1.98,3.31,1.25,4.68,5.19,2.94,8.27l-.03.06c-1.33,2.34-4.07,3.4-6.66,2.71-2.28-.6-4.82-.93-7.76-.93-5.9,0-9.9,3.3-9.9,8.7s3.1,8.7,20.2,18.2c3.6,2,6.9,4,10,6.1.92-2.49,1.84-5.14,2.61-8.13.1-.39-.2-.77-.6-.77h-2.11c-2.15,0-3.9-1.75-3.9-3.9h0c0-2.15,1.75-3.9,3.9-3.9h11.2c2.58,0,4.52,2.37,4,4.9h0c-1.5,7.5-3.9,13.7-6.3,19.1,3.99,4.21,6.73,9.16,7.84,15.7.63,3.67-2.29,7-6.01,7h0c-3,0-5.51-2.2-6.01-5.16ZM691.78,426.82c-2.8-1.9-6.3-3.9-10.5-6.1-4.7-2.5-9-4.8-12.7-7.2-6.1,3.3-8.5,7.4-8.5,11.8,0,6,4.9,10.1,12.7,10.1s14-2.4,19-8.6Z"/>
        <path class="cls-1" d="M750.08,378.21c0-3.31,2.69-6,6-6h20.6c23.5,0,37.8,15.1,37.8,37s-14.3,37-37.8,37h-20.6c-3.31,0-6-2.69-6-6v-62ZM776.68,434.22c15.8,0,24.6-10,24.6-25s-8.8-25-24.6-25h-8c-3.31,0-6,2.69-6,6v38c0,3.31,2.69,6,6,6h8Z"/>
        <path class="cls-1" d="M828.55,390.42h0c2.8,0,5.15,2.12,5.44,4.91l.49,4.79c4.2-8.3,10.2-11,17.1-11,.01,0,.02,0,.03,0,2.81.01,5.07,2.34,5.07,5.15v2.39c0,2.97-2.51,5.34-5.48,5.14-1.05-.07-1.86-.07-2.32-.07-8.6,0-13.6,6.7-13.6,16.7v21.7c0,3.37-2.73,6.1-6.1,6.1h0c-3.37,0-6.1-2.73-6.1-6.1v-44.23c0-3.02,2.45-5.47,5.47-5.47Z"/>
        <path class="cls-1" d="M925.28,440.96v.24c0,2.15-1.28,4.1-3.25,4.95-1.73.75-3.92,1.27-6.35,1.27-4.5,0-10.9-2.1-12.8-9.8-3.2,5.1-8.9,9.8-17.9,9.8-15.3,0-25.7-9.8-25.7-28.6s11.7-29.6,27.7-29.6c6.7,0,12.3,1.9,16.8,5.2l.11-.32c.77-2.21,2.85-3.68,5.19-3.68h0c3.04,0,5.5,2.46,5.5,5.5v33.9c0,4.5,1.6,5.8,5.1,5.8.02,0,.03,0,.05,0,3.03-.02,5.55,2.31,5.55,5.34ZM902.38,418.22v-13.4c-3.8-2.9-8.4-4.2-14.4-4.2-11,0-15.9,6.7-15.9,18.2,0,10.9,5,16.8,14.9,16.8s15.4-7.2,15.4-17.4Z"/>
        <path class="cls-1" d="M931.98,377.26h0c0-3.45,2.8-6.25,6.25-6.25h1.2c3.45,0,6.25,2.8,6.25,6.25h0c0,3.45-2.8,6.25-6.25,6.25h-1.2c-3.45,0-6.25-2.8-6.25-6.25ZM932.78,440.12v-43.6c0-3.37,2.73-6.1,6.1-6.1h0c3.37,0,6.1,2.73,6.1,6.1v43.6c0,3.37-2.73,6.1-6.1,6.1h0c-3.37,0-6.1-2.73-6.1-6.1Z"/>
        <path class="cls-1" d="M962.55,390.42h0c2.86,0,5.25,2.16,5.54,5l.48,4.7c4.1-7.7,10.2-11,19.1-11,12.8,0,21.3,8.3,21.3,25v26c0,3.37-2.73,6.1-6.1,6.1h0c-3.37,0-6.1-2.73-6.1-6.1v-26c0-8.8-4.6-13.1-12.7-13.1-9.8,0-14.9,5.7-14.9,17v22.1c0,3.37-2.73,6.1-6.1,6.1h0c-3.37,0-6.1-2.73-6.1-6.1v-44.13c0-3.08,2.5-5.57,5.57-5.57Z"/>
        <path class="cls-1" d="M1083.48,440.96v.27c0,2.14-1.27,4.06-3.23,4.91-1.73.76-3.94,1.28-6.37,1.28-4.5,0-10.9-2.1-12.8-9.8-3.2,5.1-8.9,9.8-17.9,9.8-15.3,0-25.7-9.8-25.7-28.6s11.7-29.6,27.7-29.6c6.7,0,12.3,1.9,16.8,5.2l.11-.32c.77-2.21,2.85-3.68,5.19-3.68h0c3.04,0,5.5,2.46,5.5,5.5v33.9c0,4.5,1.6,5.8,5.1,5.8.02,0,.03,0,.05,0,3.03-.02,5.55,2.31,5.55,5.34ZM1060.58,418.22v-13.4c-3.8-2.9-8.4-4.2-14.4-4.2-11,0-15.9,6.7-15.9,18.2,0,10.9,5,16.8,14.9,16.8s15.4-7.2,15.4-17.4Z"/>
        <path class="cls-1" d="M1119.58,430.42c18.9,0,24.7,7.8,24.7,17.8,0,11.2-8.7,19.2-28.5,19.2s-28.2-8-28.2-19.2c0-5.4,2.2-9.3,4.9-11.9-2.2-2.2-3.5-5.1-3.5-9,0-5.1,3.2-8.5,6.3-10.4-2.4-2.9-3.6-6.4-3.6-10.5,0-10.2,7.4-17.2,24-17.2,2.7,0,5.1.2,7.3.5.52-5.45,5.22-8.85,10.98-10.25,3.26-.8,6.43,1.63,6.43,4.99v.59c0,2.33-1.59,4.28-3.82,4.97-1.62.5-2.99,1.43-3.98,3,4.9,3.1,7.2,7.8,7.2,13.4,0,10.4-7.5,17.4-24,17.4-5.3,0-9.7-.7-13.2-2-1.1,1-1.7,2.3-1.7,3.7,0,3,2.3,4.9,8.8,4.9h9.9ZM1132.78,448.12c0-4.1-2.8-6.9-12.9-6.9h-10.8c-2.6,0-5.3-.2-7.9-.7-1.9,2.5-2.1,5.1-2.1,7.6,0,5.3,4.6,9.7,16.7,9.7s17-4.4,17-9.7ZM1103.58,406.42c0,4.5,3.3,7.7,12.2,7.7s12.1-3.2,12.1-7.7-3-7.5-12.1-7.5-12.2,3.1-12.2,7.5Z"/>
        <path class="cls-1" d="M1146.57,418.32c0-16.9,10.2-29.1,27.8-29.1s26.5,11.8,26.5,29.1c0,2-.2,3.5-.5,5.4h-40.6c.9,8.4,8.3,12.7,16.9,12.7,5.14,0,8.86-.71,12.67-2.25,2.72-1.09,5.81.05,7.07,2.69v.02c1.35,2.83.04,6.18-2.85,7.4-4.9,2.07-10.54,3.14-17.8,3.14-18.8,0-29.2-11.8-29.2-29.1ZM1188.38,413.92c-.3-8.7-4.7-13.7-14-13.7-8.8,0-14.3,5.2-14.3,13.7h28.3Z"/>
      </g>
    </g>
  </g>
</svg>