<?xml version="1.0" encoding="UTF-8"?>
<svg id="Layer_2" data-name="Layer 2" xmlns="http://www.w3.org/2000/svg" viewBox="0 0 285.96 272.92">
  <defs>
    <style>
      .cls-1 {
        fill: #3ed8c1;
      }
    </style>
  </defs>
  <g id="Layer_1-2" data-name="Layer 1">
    <g>
      <circle class="cls-1" cx="201.58" cy="178.77" r="5.43"/>
      <circle class="cls-1" cx="214.86" cy="152.45" r="5.6"/>
      <circle class="cls-1" cx="214.71" cy="123.91" r="5.77"/>
      <circle class="cls-1" cx="201.52" cy="98.1" r="5.94"/>
      <circle class="cls-1" cx="177.26" cy="80.48" r="6.1"/>
      <circle class="cls-1" cx="149" cy="75.16" r="6.27"/>
      <circle class="cls-1" cx="121.21" cy="82.01" r="6.44"/>
      <circle class="cls-1" cx="98.07" cy="100.68" r="6.61"/>
      <circle class="cls-1" cx="84.68" cy="127.03" r="6.77"/>
      <circle class="cls-1" cx="82.71" cy="155.6" r="6.94"/>
      <circle class="cls-1" cx="91.88" cy="182.85" r="7.11"/>
      <circle class="cls-1" cx="111.83" cy="205.2" r="7.28"/>
      <circle class="cls-1" cx="138.34" cy="218.18" r="7.45"/>
      <circle class="cls-1" cx="166.91" cy="220.64" r="7.61"/>
      <circle class="cls-1" cx="194.54" cy="212.83" r="7.78"/>
      <circle class="cls-1" cx="218.21" cy="194.98" r="7.95"/>
      <circle class="cls-1" cx="234.18" cy="169.59" r="8.12"/>
      <circle class="cls-1" cx="240.41" cy="141.4" r="8.29"/>
      <circle class="cls-1" cx="237.09" cy="112.97" r="8.45"/>
      <circle class="cls-1" cx="224.42" cy="86.85" r="8.62"/>
      <circle class="cls-1" cx="202.81" cy="65.7" r="8.79"/>
      <circle class="cls-1" cx="176.21" cy="52.89" r="8.96"/>
      <circle class="cls-1" cx="147.71" cy="49" r="9.12"/>
      <circle class="cls-1" cx="119.47" cy="53.88" r="9.29"/>
      <circle class="cls-1" cx="93.65" cy="67.34" r="9.46"/>
      <circle class="cls-1" cx="72.5" cy="89.04" r="9.63"/>
      <circle class="cls-1" cx="59.04" cy="115.43" r="9.8"/>
      <circle class="cls-1" cx="53.81" cy="143.79" r="9.96"/>
      <circle class="cls-1" cx="56.68" cy="172.3" r="10.13"/>
      <circle class="cls-1" cx="67.49" cy="199.12" r="10.3"/>
      <circle class="cls-1" cx="86.11" cy="222.41" r="10.47"/>
      <circle class="cls-1" cx="110.92" cy="239.76" r="10.64"/>
      <circle class="cls-1" cx="138.44" cy="249.48" r="10.8"/>
      <circle class="cls-1" cx="167.09" cy="251.67" r="10.97"/>
      <circle class="cls-1" cx="195.3" cy="246.45" r="11.14"/>
      <circle class="cls-1" cx="221.53" cy="233.94" r="11.31"/>
      <circle class="cls-1" cx="244.21" cy="214.27" r="11.47"/>
      <circle class="cls-1" cx="261.15" cy="189.23" r="11.64"/>
      <circle class="cls-1" cx="271.03" cy="161.74" r="11.81"/>
      <circle class="cls-1" cx="273.98" cy="133.13" r="11.98"/>
      <circle class="cls-1" cx="270.09" cy="104.71" r="12.15"/>
      <circle class="cls-1" cx="259.46" cy="77.81" r="12.31"/>
      <circle class="cls-1" cx="242.2" cy="53.74" r="12.48"/>
      <circle class="cls-1" cx="218.88" cy="34.05" r="12.65"/>
      <circle class="cls-1" cx="192.43" cy="20.67" r="12.82"/>
      <circle class="cls-1" cx="164.3" cy="13.73" r="12.99"/>
      <circle class="cls-1" cx="135.6" cy="13.16" r="13.15"/>
      <circle class="cls-1" cx="107.44" cy="18.85" r="13.32"/>
      <circle class="cls-1" cx="80.96" cy="30.72" r="13.49"/>
      <circle class="cls-1" cx="57.27" cy="48.68" r="13.66"/>
      <circle class="cls-1" cx="37.71" cy="72.17" r="13.82"/>
      <circle class="cls-1" cx="24" cy="98.51" r="13.99"/>
      <circle class="cls-1" cx="16.23" cy="126.49" r="14.16"/>
      <circle class="cls-1" cx="14.33" cy="155.17" r="14.33"/>
      <circle class="cls-1" cx="18.22" cy="183.61" r="14.5"/>
      <circle class="cls-1" cx="27.83" cy="210.84" r="14.66"/>
      <circle class="cls-1" cx="43.09" cy="235.93" r="14.83"/>
      <circle class="cls-1" cx="63.91" cy="257.91" r="15"/>
    </g>
  </g>
</svg>